#!OML:ASF F:\VICON\USERDATA\INSTALL\rory3\rory3.ASF
:FULLY-SPECIFIED
:DEGREES
55
root 0.08265781314811041 17.6340583907673 34.43126855962044 1.7657273765152257 -0.9192945181051854 -0.8830910495450395
lfemur -14.144341606627709 -2.397107854262547 -25.650108249747408
ltibia 44.045700099669105
lfoot -11.263870897563045 -4.324537980286342
ltoes -5.250971354141904
rfemur -31.244403573068396 -5.821695744528055 25.87898957058465
rtibia 106.51728627932691
rfoot 13.049886743841121 -6.590586969822914
rtoes 10.914098919531494
lowerback 15.58324481504437 1.3966062612537367 -0.2826784000879139
upperback -0.4533227405733369 2.0149816094636064 0.3248316620227918
thorax -9.670730489175977 0.9560519248709527 0.5525060000018996
lowerneck -19.727871138507442 -2.880920864317914 -2.281285874859087
upperneck 12.859137959094594 -4.159259480051515 3.456533850420917
head 7.4489470043271115 -1.6161640270088737 0.9448636593753936
lclavicle -2.8183911260043724e-15 9.933362309748668e-16
lhumerus -53.95043094051606 -12.00773930725946 96.10860655145939
lradius 98.15492936126489
lwrist 32.12270545323765
lhand -25.48053883658431 1.440850241384976
lfingers 7.12502
lthumb 1.0474978980671255 31.40794373147695
rclavicle -2.8183911260043724e-15 9.933362309748668e-16
rhumerus -50.13669094899401 8.181890641249014 -98.47469735135142
rradius 111.01683471765365
rwrist -10.50955392122071
rhand -15.954493043037251 39.63671557648762
rfingers 7.12502
rthumb 10.243898908377668 9.896586664492032
56
root 0.07283722874612972 17.57640077718373 34.9978500824318 1.9397092893718646 -0.24604551682277742 -0.5905059692924701
lfemur -10.724848258558849 -2.5735785161527382 -26.53840564800543
ltibia 41.842822904044574
lfoot -13.380868762652122 -4.337013335399146
ltoes -5.737350649226205
rfemur -36.587640445963785 -6.145656577533966 25.266493148277885
rtibia 100.24656917349158
rfoot 9.41772548794771 -7.964664789627996
rtoes 7.153081908380679
lowerback 15.591674021256257 0.9573943421258749 -0.9974667284672145
upperback -0.42418948433745873 1.3057446537788013 0.37729703574190054
thorax -9.66469984672719 0.6634876882969514 1.13728832389072
lowerneck -19.73501051421361 -2.8874997579906534 -2.4975997505723777
upperneck 12.670110111185998 -4.110787033803772 3.571681419611407
head 7.400322338497776 -1.5909932123330957 1.024293248149816
lclavicle -3.4249005900083035e-15 5.534150001891885e-16
lhumerus -50.057359750975735 -13.87768005757872 96.17077792688131
lradius 99.6223999237499
lwrist 32.62253688245651
lhand -25.62769897604245 1.444006693637878
lfingers 7.12502
lthumb 0.9053635818573647 31.41205958908962
rclavicle -3.4249005900083035e-15 5.534150001891885e-16
rhumerus -51.900750972526616 7.9225630318187354 -98.3638403512502
rradius 110.8432721839242
rwrist -10.685884200481514
rhand -15.806336814531928 39.65994702054826
rfingers 7.12502
rthumb 10.38682855588018 9.922896274076894
57
root 0.0580959695819008 17.517807768797727 36.13198743378048 2.3641962613255743 0.6105208011280212 -0.2643729596855766
lfemur -6.570836324797238 -2.4556322388083394 -27.05162129993999
ltibia 40.05169488097607
lfoot -14.495148127089621 -4.394632848154015
ltoes -6.188189643563241
rfemur -40.11603535254667 -5.7507695099470855 24.82468486049802
rtibia 91.22461356026066
rfoot 7.096034941286321 -9.524094865710241
rtoes 4.178339289556268
lowerback 15.486393509958031 0.5751200655561581 -1.5736534074210444
upperback -0.4208275652480177 0.6935018588100637 0.4959166172498277
thorax -9.600192983387897 0.4102065353721563 1.820034724259706
lowerneck -19.781618312509977 -2.9378721750000527 -2.6876588912869726
upperneck 12.481663750998324 -4.126011957501493 3.7604174446136707
head 7.360422509078377 -1.5903388967674141 1.118399922592587
lclavicle -3.2079573640889913e-15 7.107710597579009e-16
lhumerus -45.42314722121844 -15.598915404253606 96.21773162960024
lradius 101.65286544632733
lwrist 33.303449293516536
lhand -25.65357870043083 1.6258711478215557
lfingers 7.12502
lthumb 0.8803566923687012 31.59399599221841
rclavicle -3.2079573640889913e-15 7.107710597579009e-16
rhumerus -53.42538794158108 7.8430905323973175 -98.06280170459277
rradius 110.79591510197864
rwrist -10.73116629397093
rhand -15.621139281532237 39.80421397472543
rfingers 7.12502
rthumb 10.565503456773074 10.067843434372465
58
root 0.027362047392504196 17.435113436641497 36.82792164608673 2.915063897513397 1.4299587400719282 0.019275361114359235
lfemur -2.4766236268296318 -2.323990832529646 -27.61853811564781
ltibia 37.114652453388075
lfoot -15.448440723261902 -4.7765069041715105
ltoes -7.152570386624815
rfemur -43.06126549297487 -4.74894439923901 24.065070505387972
rtibia 79.30213464789495
rfoot 5.549802935233811 -11.683985549744314
rtoes 1.207955081261676
lowerback 15.214245705435603 0.18498641460017085 -2.2376514319488443
upperback -0.5075286256015323 0.06435709109368126 0.5823331353921131
thorax -9.529884668040358 0.15039351182731542 2.4418084460671277
lowerneck -19.951617009290096 -3.0459531154476234 -2.864014889680486
upperneck 12.273588498672874 -4.234039529689506 3.945630799590325
head 7.321456367655179 -1.6274999842776996 1.2018212157668327
lclavicle -3.493815886887564e-15 5.034284850971508e-16
lhumerus -41.077800798426765 -17.410765393408216 96.15048976966985
lradius 103.91082945847756
lwrist 34.100278277403454
lhand -25.684798200462577 1.7097340936827097
lfingers 7.12502
lthumb 0.8501905860264258 31.678073960130753
rclavicle -3.493815886887564e-15 5.034284850971508e-16
rhumerus -55.13008565617865 7.590154955519431 -97.78778085882936
rradius 110.47386446763788
rwrist -10.73161905786165
rhand -15.467967943122893 39.92722356395816
rfingers 7.12502
rthumb 10.713281676891043 10.191969141368682
59
root -0.0034145262276188137 17.347520509847964 38.206913442863915 3.59841427001074 2.3328104636716667 0.3296879739492442
lfemur 2.2968369855578725 -2.0653912140507784 -27.844964171416063
ltibia 34.75356215205355
lfoot -15.396603078696826 -5.226277957780651
ltoes -8.458960649078763
rfemur -44.295263705567585 -3.044773208857343 23.39074233725563
rtibia 67.11483455756034
rfoot 5.019321877623711 -13.69630347704144
rtoes -0.9560232574528231
lowerback 14.87768264752334 -0.12813323091540052 -2.725639419575807
upperback -0.6226794910380831 -0.43294604088861677 0.7241455221476263
thorax -9.424500194552875 -0.05594722817663722 3.0991706674243327
lowerneck -20.11211027576349 -3.0987362163900656 -2.9775569679826233
upperneck 12.145686505248985 -4.280563093484878 4.133394449291918
head 7.304114647614575 -1.633097033656235 1.2799950369556123
lclavicle -3.0313844148752065e-15 8.388452237479954e-16
lhumerus -36.48613401449181 -18.842097500936177 96.10014273639584
lradius 106.57948379503516
lwrist 34.969387933058705
lhand -25.66633846433187 1.8267841101904985
lfingers 7.12502
lthumb 0.8680003577902922 31.794430432171527
rclavicle -3.0313844148752065e-15 8.388452237479954e-16
rhumerus -56.55509882050713 7.254984352167494 -97.25944022806725
rradius 109.98364758572195
rwrist -10.47226914871396
rhand -15.31394039810534 40.105943450470285
rfingers 7.12502
rthumb 10.861906535939859 10.369752018832681
60
root -0.048147859904893064 17.22360063925108 39.059626054043186 4.202965235064449 3.060506858280061 0.49681410539205384
lfemur 6.335700653220437 -2.0705196461587647 -28.06227921499797
ltibia 32.296732922226354
lfoot -15.154622935423793 -5.988931043007615
ltoes -10.594736909926114
rfemur -45.31055938165349 -1.1910442341329421 22.63247355225025
rtibia 55.26425493866271
rfoot 4.428878681320593 -15.36193112594174
rtoes -3.4163414332529016
lowerback 14.497414227426697 -0.44088188975944886 -3.2025208613763363
upperback -0.7858836346133078 -0.923100494520043 0.855362714719965
thorax -9.34786722797055 -0.2595642752458772 3.598243336149533
lowerneck -20.32246609537879 -3.13997428239768 -3.066958933020495
upperneck 12.062395552941375 -4.318675587926103 4.241274073115569
head 7.29571530455379 -1.6390548041089328 1.3279968175544952
lclavicle -3.279356177417544e-15 6.589831498407583e-16
lhumerus -32.80212411244348 -20.132050555112123 96.0083926478688
lradius 109.05165772793256
lwrist 35.65601868248284
lhand -25.76753531342767 1.7038831755657866
lfingers 7.12502
lthumb 0.7702547541717846 31.67116508196666
rclavicle -3.279356177417544e-15 6.589831498407583e-16
rhumerus -58.19306589563885 6.575571082121621 -96.72558770047803
rradius 109.05579708676068
rwrist -10.14252205634591
rhand -15.34776153170131 40.22762480053415
rfingers 7.12502
rthumb 10.829280778244394 10.489250959528471
61
root -0.09106741784758304 17.0946724792394 40.6412510372858 4.70196387024756 3.7502376851512897 0.6115491491172738
lfemur 10.484585655975495 -2.2549770134943667 -27.83679761826373
ltibia 32.01233645914214
lfoot -13.840585492265696 -6.73073654756808
ltoes -13.196300620187285
rfemur -44.97653918885435 0.5030007515725474 22.425434462795238
rtibia 47.38247092663988
rfoot 4.508822375693396 -15.5313564295387
rtoes -4.875875416756337
lowerback 14.24820953424521 -0.6465082430793418 -3.3671396398896265
upperback -0.9030599115870444 -1.2239681412910102 1.0807428795826075
thorax -9.27025289337215 -0.3867628140729492 4.077762521329503
lowerneck -20.490672680197903 -3.098381546202152 -3.1017938222147
upperneck 12.09258082258829 -4.241909503514604 4.3096056895316766
head 7.315067140271593 -1.5975046028842483 1.3636846112580037
lclavicle -2.663627160578922e-15 1.1055916223916247e-15
lhumerus -29.463478608900754 -20.81173899499194 96.04926286914468
lradius 111.5118333872832
lwrist 36.19353934949576
lhand -25.937658049238742 1.4826284821802695
lfingers 7.12502
lthumb 0.6059586538141342 31.44896532367237
rclavicle -2.663627160578922e-15 1.1055916223916247e-15
rhumerus -59.54609659900854 5.791283946350399 -95.85323694403885
rradius 107.99155983110929
rwrist -9.559880708378286
rhand -15.482258871838786 40.370731612127734
rfingers 7.12502
rthumb 10.69952249829929 10.626857362921248
